:SAMPLES-PER-SECOND 30
:FULLY-SPECIFIED
:DEGREES
281
root  34.97688714 36.50223139 -14.82673555 10.55837917 7.988912106 3.402226448
lowerback  -8.426509857 2.517169952 2.290439844
upperback  -4.347959995 2.813970089 -4.150390148
thorax  0.5353630185 1.158800006 -5.351059914
lowerneck  -16.51849937 2.413019896 4.645349979
upperneck  18.53919983 0.9949640632 3.546099901
head  8.541110039 1.035840034 0.5317769647
lclavicle  0 -4.497500157e-015 -2.743230041e-014
lhumerus  -44.7901001 25.88100052 68.78690338
lradius  -0.2338710427 -6.507048965e-006 26.90460014
lwrist  4.824992743e-007 -3.790274832e-007 -31.34110069
lhand  -0 -36.82770157 -10.24120045
lfingers  90 7.125020027 -90
lthumb  94.69081669 -25.08746133 100.9526103
rclavicle  0 -4.497500157e-015 -2.743230041e-014
rhumerus  41.53950119 15.25360012 -54.1576004
rradius  -5.16745672e-007 2.214343908e-008 73.13140106
rwrist  -3.062178075e-005 0.01194404531 -174.7200012
rhand  -0 3.112400055 -4.85612011
rfingers  -90 -7.125020027 -90
rthumb  -84.0442551 -10.78909429 -60.869085
rfemur  -13.47003269 12.45897198 14.71312332
rtibia  -1.885670781 2.380043983 22.74462891
rfoot  -1.843201756 -15.75778866 -43.12915039
rtoes  3.844108393 19.641957 -101.3041849
lfemur  -11.90947819 -21.26773262 -17.67553902
ltibia  2.326868296 1.900063157 15.91973877
lfoot  0.6793515682 -29.29952431 31.83064079
ltoes  -8.585376663 -18.13207512 -115.8791394
282
root  34.98031136 36.50243264 -14.826692 10.54217815 7.883741379 3.387055635
lowerback  -8.446379662 2.496459961 2.25015974
upperback  -4.34333992 2.788150072 -4.145699978
thorax  0.5461990237 1.14625001 -5.324940205
lowerneck  -16.51740074 2.221889973 4.447500229
upperneck  18.63890076 0.7728940845 3.55369997
head  8.57145977 0.9179959893 0.5400010943
lclavicle  0 -4.497500157e-015 -2.743230041e-014
lhumerus  -44.87950134 25.94449997 68.72429657
lradius  -0.2354551852 -6.507048965e-006 26.94910049
lwrist  4.824992743e-007 -3.790274832e-007 -31.33810043
lhand  -0 -36.79150009 -10.21730042
lfingers  90 7.125020027 -90
lthumb  94.66923336 -25.0652647 100.9120208
rclavicle  0 -4.497500157e-015 -2.743230041e-014
rhumerus  40.2787056 15.31029892 -54.3116951
rradius  -5.16745672e-007 2.214343908e-008 74.48789978
rwrist  -3.062178075e-005 0.01194404531 -174.8139954
rhand  -1.768510709e-031 3.308809996 -4.24612999
rfingers  -90 -7.125020027 -90
rthumb  -83.68830413 -11.32880751 -60.61774152
rfemur  -13.44220066 12.46328449 14.69233799
rtibia  -1.856254458 2.354128599 22.69320869
rfoot  -1.814864159 -15.81684208 -43.06007004
rtoes  3.833994232 19.64385852 -101.2740972
lfemur  -11.91183758 -21.26721001 -17.66746521
ltibia  2.293371677 1.872429967 15.95760155
lfoot  0.6844364405 -29.26630592 31.89910507
ltoes  -8.62886698 -18.11196113 -116.0189608
283
root  34.984081 36.5029733 -14.82658086 10.53827381 7.770222664 3.377620697
lowerback  -8.452050209 2.481329918 2.224040508
upperback  -4.331270218 2.770390034 -4.140140057
thorax  0.5584660172 1.138329983 -5.305520058
lowerneck  -16.53339958 2.044199944 4.182980061
upperneck  18.76009941 0.5528470874 3.687939882
head  8.612409592 0.808866024 0.6023548841
lclavicle  0 -4.497500157e-015 -2.743230041e-014
lhumerus  -44.92010117 26.05179977 68.66280365
lradius  -0.2370395511 -6.507048965e-006 26.93320274
lwrist  4.824992743e-007 -3.790274832e-007 -31.40299988
lhand  -4.404560901e-031 -36.70750046 -10.33139992
lfingers  90 7.125020027 -90
lthumb  94.65429932 -25.18017779 100.8324777
rclavicle  0 -4.497500157e-015 -2.743230041e-014
rhumerus  38.99359894 15.2343998 -54.6053009
rradius  -5.16745672e-007 2.214343908e-008 75.76809692
rwrist  -3.062178075e-005 0.01194404531 -175.2799988
rhand  -1.768824823e-031 3.480360031 -4.557779789
rfingers  -90 -7.125020027 -90
rthumb  -83.79825243 -11.06390751 -60.47926671
rfemur  -13.43354225 12.48522377 14.66773987
rtibia  -1.835352659 2.304594517 22.65052795
rfoot  -1.811415434 -15.91845989 -43.0429306
rtoes  3.842185163 19.64231898 -101.2984634
lfemur  -11.92739773 -21.27521896 -17.66056633
ltibia  2.264626503 1.839778066 15.99511814
lfoot  0.6881068945 -29.21628761 31.98485374
ltoes  -8.583886977 -18.13276184 -115.8743527
284
root  34.98817804 36.50387141 -14.82626847 10.5386076 7.649521828 3.337113619
lowerback  -8.444849968 2.446830034 2.154160261
upperback  -4.276760101 2.733959913 -4.156990051
thorax  0.60472399 1.123970032 -5.286129951
lowerneck  -16.63929939 1.901239991 4.038060188
upperneck  18.8314991 0.3687460124 3.745409966
head  8.654450417 0.719416976 0.6244260669
lclavicle  0 -4.497500157e-015 -2.743230041e-014
lhumerus  -44.83819962 26.13339996 68.64250183
lradius  -0.2386247367 -6.507048965e-006 26.93420029
lwrist  4.824992743e-007 -3.790274832e-007 -31.40810013
lhand  -4.39971065e-031 -36.62269974 -10.45149994
lfingers  90 7.125020027 -90
lthumb  94.63993475 -25.30104937 100.7525964
rclavicle  0 -4.497500157e-015 -2.743230041e-014
rhumerus  37.80799484 15.17370129 -54.9151001
rradius  -5.16745672e-007 2.214343908e-008 77.04450226
rwrist  -3.062178075e-005 0.01194404531 -175.6419983
rhand  -1.769555065e-031 3.849570036 -4.621349812
rfingers  -90 -7.125020027 -90
rthumb  -83.73115541 -11.02335098 -60.12239063
rfemur  -13.40904903 12.47660828 14.66447544
rtibia  -1.794948339 2.27055788 22.55887794
rfoot  -1.77138257 -15.99810696 -42.97503662
rtoes  3.853686887 19.64015137 -101.3326815
lfemur  -11.98973656 -21.24734497 -17.59888077
ltibia  2.191661119 1.821709752 16.10392761
lfoot  0.6883143187 -29.2299633 32.05881882
ltoes  -8.562800085 -18.1424666 -115.8066146
285
root  34.99094145 36.50425288 -14.82486575 10.54061222 7.546209335 3.341768742
lowerback  -8.426529884 2.415280104 2.131500483
upperback  -4.246789932 2.696259975 -4.164850235
thorax  0.6209899783 1.106960058 -5.285160065
lowerneck  -16.70610046 1.727519989 3.925349951
upperneck  18.8946991 0.1565590203 3.718689919
head  8.687000275 0.6099290252 0.6086881757
lclavicle  0 -4.497500157e-015 -2.743230041e-014
lhumerus  -44.82559967 26.06609917 68.65460205
lradius  -0.240210399 -6.507048965e-006 27.00670052
lwrist  4.824992743e-007 -3.790274832e-007 -31.23469925
lhand  -4.396319734e-031 -36.5632019 -10.52700043
lfingers  90 7.125020027 -90
lthumb  94.62779676 -25.37711981 100.6956663
rclavicle  0 -4.497500157e-015 -2.743230041e-014
rhumerus  36.56550217 15.14369869 -55.28839874
rradius  -5.16745672e-007 2.214343908e-008 78.26940155
rwrist  -3.062178075e-005 0.01194404531 -175.647995
rhand  -1.76823911e-031 3.152920008 -4.80685997
rfingers  -90 -7.125020027 -90
rthumb  -84.00928129 -10.8337096 -60.82471793
rfemur  -13.42131424 12.51476955 14.63891888
rtibia  -1.788144708 2.255772591 22.55604172
rfoot  -1.745149493 -16.01576233 -42.89120483
rtoes  3.872093791 19.63666835 -101.3874505
lfemur  -11.95931244 -21.19598579 -17.62955856
ltibia  2.199006557 1.813426137 16.06636047
lfoot  0.6795943379 -29.19874001 32.09024429
ltoes  -8.592467204 -18.12880446 -115.9019252
